# xmcd
#
# Track frame offsets:
#	150
#	19952
#	34053
#	50823
#	64905
#	82044
#	96531
#	112158
#	127817
#	147104
# Disc length: 2195 seconds
# Revision: 1
# Processed by: cddbd v1.5.2PL0 Copyright (c) Steve Scherf et al.
#
# Submitted via: libkcddb 0.31
#
DISCID=9308910a
DTITLE=หนู มิเตอร์ - วอนฟ้าห่มดาว
DYEAR=2006
DGENRE=Country
TTITLE0=วอนฟ้าห่มดาว วอนสาวห่มใจ
TTITLE1=สาวสามพราน
TTITLE2=สุขภาพรัก
TTITLE3=ทางเดินแห่งชีวิต
TTITLE4=คนดีของฉัน
TTITLE5=คนขี้อาย
TTITLE6=แรงใจ แรงงาน
TTITLE7=เคียงข้างสร้างฝัน
TTITLE8=ความฝันของเด็กข้างถนน
TTITLE9=อำลา
EXTD=Thai
EXTT0=
EXTT1=
EXTT2=
EXTT3=
EXTT4=
EXTT5=
EXTT6=
EXTT7=
EXTT8=
EXTT9=
PLAYORDER=
